<svg clip-rule="evenodd" fill-rule="evenodd" height="512" stroke-linejoin="round" stroke-miterlimit="2" viewBox="0 0 32 32" width="512" xmlns="http://www.w3.org/2000/svg" xmlns:xlink="http://www.w3.org/1999/xlink"><linearGradient id="_Linear1" gradientTransform="matrix(0 -10.892 10.892 0 59.5 13.282)" gradientUnits="userSpaceOnUse" x1="0" x2="1" y1="0" y2="0"><stop offset="0" stop-color="#ff9e4f"/><stop offset="1" stop-color="#d86100"/></linearGradient><linearGradient id="_Linear2" gradientTransform="matrix(0 5.766 -5.766 0 -134.68 21.234)" gradientUnits="userSpaceOnUse" x1="0" x2="1" y1="0" y2="0"><stop offset="0" stop-color="#dadff6"/><stop offset="1" stop-color="#4f6cf2"/></linearGradient><linearGradient id="_Linear3" gradientTransform="matrix(0 18.059 -18.059 0 22.361 23.378)" gradientUnits="userSpaceOnUse" x1="0" x2="1" y1="0" y2="0"><stop offset="0" stop-color="#1c96eb"/><stop offset="1" stop-color="#005e9f"/></linearGradient><linearGradient id="_Linear4" gradientTransform="matrix(0 16.5 -16.5 0 72.374 24)" gradientUnits="userSpaceOnUse" x1="0" x2="1" y1="0" y2="0"><stop offset="0" stop-color="#fff"/><stop offset="1" stop-color="#b3b3b3"/></linearGradient><linearGradient id="_Linear7" gradientTransform="matrix(0 4.813 -4.813 0 58.23 5.187)" gradientUnits="userSpaceOnUse" x1="0" x2="1" y1="0" y2="0"><stop offset="0" stop-color="#fdc75b"/><stop offset="1" stop-color="#e09500"/></linearGradient><linearGradient id="_Linear8" gradientTransform="matrix(0 17.489 -17.489 0 -33.323 7.096)" gradientUnits="userSpaceOnUse" x1="0" x2="1" y1="0" y2="0"><stop offset="0" stop-color="#dce0f6"/><stop offset="1" stop-color="#526af0"/></linearGradient><path d="m13.603 7.045c0-.414-.336-.75-.75-.75h-9.578c-.414 0-.75.336-.75.75v17.957c0 1.737 1.408 3.145 3.145 3.145h13.938c.296 0 .565-.175.685-.446s.07-.587-.129-.807c-.842-.931-1.355-2.164-1.355-3.516 0-2.895 2.351-5.246 5.245-5.246 1.353 0 2.586.513 3.517 1.355.219.199.536.249.807.129s.446-.389.446-.685v-11.886c0-.414-.336-.75-.75-.75h-9.578c-.414 0-.75.336-.75.75v2.125c0 .417-.338.755-.755.755h-2.633c-.417 0-.755-.338-.755-.755z" fill="url(#_Linear1)"/><path d="m19.68 20.484h-17.155v1.5h16.472c.148-.54.381-1.045.683-1.5z" fill="url(#_Linear2)"/><circle cx="24.054" cy="23.378" fill="url(#_Linear3)" r="6.745"/><circle cx="24.054" cy="23.378" fill="url(#_Linear4)" r="5.245"/><path d="m26.805 22.628h-5.496c-.414 0-.75.336-.75.75 0 .413.336.75.75.75h5.496c.414 0 .75-.337.75-.75 0-.414-.336-.75-.75-.75z" fill="url(#_Linear3)"/><path d="m23.307 20.63v5.495c0 .414.336.75.75.75s.75-.336.75-.75v-5.495c0-.414-.336-.75-.75-.75s-.75.336-.75.75z" fill="url(#_Linear3)"/><path d="m18.496 1.661c-.414 0-.75.336-.75.75v4.634c0 .414.336.75.75.75h9.106c1.406 0 2.546-1.14 2.546-2.546v-1.042c0-1.406-1.14-2.546-2.546-2.546zm-4.893.75c0-.414-.336-.75-.75-.75h-9.106c-1.407 0-2.547 1.14-2.547 2.546v1.042c0 1.406 1.14 2.546 2.547 2.546h9.106c.414 0 .75-.336.75-.75z" fill="url(#_Linear7)"/><path d="m19.246 1.661h-7.143v7.514c0 .597.237 1.169.659 1.591s.994.659 1.591.659h2.643c.597 0 1.169-.237 1.591-.659s.659-.994.659-1.591z" fill="url(#_Linear8)"/></svg>