<svg clip-rule="evenodd" fill-rule="evenodd" height="512" stroke-linejoin="round" stroke-miterlimit="2" viewBox="0 0 64 64" width="512" xmlns="http://www.w3.org/2000/svg"><g transform="translate(-320 -448)"><g id="Icon"><path d="m380 458c0-1.105-.895-2-2-2-7.329 0-32.671 0-40 0-1.105 0-2 .895-2 2v48c0 1.105.895 2 2 2h40c1.105 0 2-.895 2-2 0-8.268 0-39.732 0-48z" fill="#ba5100"/><path d="m378 456h-2c1.105 0 2 .895 2 2v48c0 1.105-.895 2-2 2h2c1.105 0 2-.895 2-2 0-8.268 0-39.732 0-48 0-1.105-.895-2-2-2z" fill="#7b3501"/><path d="m368 454c0-.53-.211-1.039-.586-1.414s-.884-.586-1.414-.586c-3.832 0-12.168 0-16 0-.53 0-1.039.211-1.414.586s-.586.884-.586 1.414v4c0 .53.211 1.039.586 1.414s.884.586 1.414.586h16c.53 0 1.039-.211 1.414-.586s.586-.884.586-1.414c0-1.222 0-2.778 0-4z" fill="#fedb41"/><path d="m366 452h-2c.53 0 1.039.211 1.414.586s.586.884.586 1.414v4c0 .53-.211 1.039-.586 1.414s-.884.586-1.414.586h2c.53 0 1.039-.211 1.414-.586s.586-.884.586-1.414c0-1.222 0-2.778 0-4 0-.53-.211-1.039-.586-1.414s-.884-.586-1.414-.586z" fill="#bfa632"/><path d="m376 462c0-1.105-.895-2-2-2-6.302 0-25.698 0-32 0-1.105 0-2 .895-2 2v40c0 1.105.895 2 2 2h32c1.105 0 2-.895 2-2 0-7.329 0-32.671 0-40z" fill="#eceaeb"/><path d="m374 460h-2c1.105 0 2 .895 2 2v40c0 1.105-.895 2-2 2h2c1.105 0 2-.895 2-2 0-7.329 0-32.671 0-40 0-1.105-.895-2-2-2z" fill="#adabac"/><path d="m348 486c0-.53-.211-1.039-.586-1.414s-.884-.586-1.414-.586c-4.52 0-15.48 0-20 0-.53 0-1.039.211-1.414.586s-.586.884-.586 1.414v20c0 .53.211 1.039.586 1.414s.884.586 1.414.586h20c.53 0 1.039-.211 1.414-.586s.586-.884.586-1.414z" fill="#e6c63d"/><path d="m348 489h-2v17c0 .53-.211 1.039-.586 1.414s-.884.586-1.414.586h2c.53 0 1.039-.211 1.414-.586s.586-.884.586-1.414z" fill="#806f21"/><path d="m347.293 468.707 2 2c.39.391 1.024.391 1.414 0l4-4c.39-.39.39-1.024 0-1.414s-1.024-.39-1.414 0l-3.293 3.293s-1.293-1.293-1.293-1.293c-.39-.39-1.024-.39-1.414 0s-.39 1.024 0 1.414z" fill="#32ba7c"/><g transform="translate(0 10)"><path d="m347.293 468.707 2 2c.39.391 1.024.391 1.414 0l4-4c.39-.39.39-1.024 0-1.414s-1.024-.39-1.414 0l-3.293 3.293s-1.293-1.293-1.293-1.293c-.39-.39-1.024-.39-1.414 0s-.39 1.024 0 1.414z" fill="#32ba7c"/></g><g transform="translate(0 -2)"><path d="m360 469h8c.552 0 1-.448 1-1s-.448-1-1-1h-8c-.552 0-1 .448-1 1s.448 1 1 1z" fill="#32ba7c"/></g><g transform="translate(0 8)"><path d="m360 469h8c.552 0 1-.448 1-1s-.448-1-1-1h-8c-.552 0-1 .448-1 1s.448 1 1 1z" fill="#32ba7c"/></g><g transform="translate(0 2)"><path d="m356 469h12c.552 0 1-.448 1-1s-.448-1-1-1h-12c-.552 0-1 .448-1 1s.448 1 1 1z" fill="#32ba7c"/></g><g transform="translate(0 12)"><path d="m356 469h12c.552 0 1-.448 1-1s-.448-1-1-1h-12c-.552 0-1 .448-1 1s.448 1 1 1z" fill="#32ba7c"/></g><path d="m352 457h12c.552 0 1-.448 1-1s-.448-1-1-1h-12c-.552 0-1 .448-1 1s.448 1 1 1z" fill="#bfa632"/><path d="m348 486c0-.53-.211-1.039-.586-1.414s-.884-.586-1.414-.586c-4.52 0-15.48 0-20 0-.53 0-1.039.211-1.414.586s-.586.884-.586 1.414v3h24z" fill="#bfa632"/><path d="m346 484h-2c.53 0 1.039.211 1.414.586s.586.884.586 1.414v3h2v-3c0-.53-.211-1.039-.586-1.414s-.884-.586-1.414-.586z" fill="#403710"/><path d="m340 484h-8v7.029c0 .208.108.401.285.511.176.109.397.119.583.026.911-.455 2.288-1.144 2.864-1.432.169-.084.367-.084.536 0 .576.288 1.953.977 2.864 1.432.186.093.407.083.583-.026.177-.11.285-.303.285-.511 0-2.131 0-7.029 0-7.029z" fill="#eceaeb"/><path d="m344 503h-6c-.552 0-1 .448-1 1s.448 1 1 1h6c.552 0 1-.448 1-1s-.448-1-1-1z" fill="#806f21"/><path d="m370 456h-2v2c0 .53-.211 1.039-.586 1.414s-.884.586-1.414.586h2c.53 0 1.039-.211 1.414-.586s.586-.884.586-1.414z" fill="#7b3501"/><path d="m348 504h2v-18c0-.53-.211-1.039-.586-1.414s-.884-.586-1.414-.586h-2c.53 0 1.039.211 1.414.586s.586.884.586 1.414z" fill="#adabac"/><path d="m350 504h-2v2c0 .53-.211 1.039-.586 1.414s-.884.586-1.414.586h2c.53 0 1.039-.211 1.414-.586s.586-.884.586-1.414z" fill="#7b3501"/></g></g></svg>