<svg id="Capa_1" enable-background="new 0 0 512 512" height="512" viewBox="0 0 512 512" width="512" xmlns="http://www.w3.org/2000/svg"><path d="m363.606 470.221h-310.173c-6.627 0-12-5.373-12-12v-431.331h334.173v431.331c0 6.627-5.372 12-12 12z" fill="#e8f3ff"/><path d="m375.606 26.89h-35.164v395.79c0 6.836-5.541 12.377-12.377 12.377h-286.632v22.787c0 6.836 5.541 12.377 12.377 12.377h309.42c6.836 0 12.377-5.541 12.377-12.377v-430.954z" fill="#c1e2ff"/><path d="m375.606 93.221h-334.173v-81.221c0-6.627 5.373-12 12-12h310.173c6.627 0 12 5.373 12 12z" fill="#09a66d"/><path d="m363.23 0h-22.787v93.221h35.164v-80.844c-.001-6.836-5.542-12.377-12.377-12.377z" fill="#118e5e"/><path d="m118.675 38.36h-39.26c-4.272 0-7.735-3.463-7.735-7.735s3.463-7.735 7.735-7.735h39.26c4.272 0 7.735 3.463 7.735 7.735s-3.463 7.735-7.735 7.735z" fill="#90ddb2"/><path d="m118.675 69.131h-39.26c-4.272 0-7.735-3.463-7.735-7.735s3.463-7.735 7.735-7.735h39.26c4.272 0 7.735 3.463 7.735 7.735s-3.463 7.735-7.735 7.735z" fill="#90ddb2"/><path d="m84.064 151.729h15.471v254.193h-15.471z" fill="#c5bec7"/><circle cx="92.175" cy="151.729" fill="#8f818f" r="12.76"/><circle cx="92.175" cy="405.922" fill="#0571f9" r="12.76"/><circle cx="92.175" cy="306.456" fill="#8f818f" r="12.76"/><circle cx="92.175" cy="206.691" fill="#8f818f" r="12.76"/><g fill="#c5bec7"><path d="m251.691 158.896h-109.553c-4.272 0-7.735-3.463-7.735-7.735s3.463-7.735 7.735-7.735h109.554c4.272 0 7.735 3.463 7.735 7.735s-3.463 7.735-7.736 7.735z"/><path d="m177.034 215.251h-34.896c-4.272 0-7.735-3.463-7.735-7.735s3.463-7.735 7.735-7.735h34.896c4.272 0 7.735 3.463 7.735 7.735s-3.463 7.735-7.735 7.735z"/><path d="m208.52 313.61h-66.382c-4.272 0-7.735-3.463-7.735-7.736 0-4.272 3.463-7.735 7.735-7.735h66.382c4.272 0 7.735 3.463 7.735 7.735s-3.463 7.736-7.735 7.736z"/></g><path d="m208.52 412.911h-66.382c-4.272 0-7.735-3.463-7.735-7.735s3.463-7.735 7.735-7.735h66.382c4.272 0 7.735 3.463 7.735 7.735s-3.463 7.735-7.735 7.735z" fill="#27a2fb"/><path d="m426.743 512h-131.101c-5.898 0-11.182-3.646-13.275-9.161l-12.572-33.126h183.32l-13.168 33.308c-2.142 5.419-7.378 8.979-13.204 8.979z" fill="#a698a6"/><path d="m410.365 469.714-9.202 23.277c-2.142 5.419-7.378 8.979-13.205 8.979h-105.921l.33.87c2.093 5.514 7.377 9.161 13.275 9.161h131.101c5.827 0 11.062-3.56 13.205-8.979l13.168-33.308z" fill="#786e79"/><path d="m444.497 476.401h-166.753c-14.398 0-26.069-11.672-26.069-26.069v-217.275c0-18.454 14.96-33.414 33.414-33.414h152.065c18.454 0 33.414 14.96 33.414 33.414v217.275c-.002 14.398-11.673 26.069-26.071 26.069z" fill="#5abc91"/><path d="m447.483 201.279c1.057 3.254 1.635 6.724 1.635 10.33v217.275c0 14.398-11.672 26.069-26.069 26.069h-166.753c-1.454 0-2.878-.125-4.267-.353 2.037 12.367 12.772 21.802 25.716 21.802h166.753c14.398 0 26.069-11.672 26.069-26.069v-217.276c-.001-14.847-9.688-27.426-23.084-31.778z" fill="#09a66d"/><path d="m317.729 383.32h84.777c12.926 0 23.405-10.479 23.405-23.405v-160.272h-131.587v160.272c0 12.926 10.479 23.405 23.405 23.405z" fill="#a698a6"/><path d="m392.646 199.643v160.272c0 12.926-10.479 23.405-23.405 23.405h33.265c12.926 0 23.405-10.479 23.405-23.405v-160.272z" fill="#786e79"/><circle cx="305.942" cy="430.575" fill="#fcdd2e" r="13.338"/><circle cx="416.299" cy="430.575" fill="#fcdd2e" r="13.338"/><path d="m380.951 337.179h-41.667c-7.732 0-14-6.268-14-14v-30.667c0-7.732 6.268-14 14-14h41.667c7.732 0 14 6.268 14 14v30.667c0 7.732-6.268 14-14 14z" fill="#d8eafb"/></svg>